<svg xmlns="http://www.w3.org/2000/svg" viewBox="0 0 1200 800" role="img" aria-label="Living room with engineered wood flooring">
  <rect width="1200" height="800" fill="#111110"/>
  <rect width="1200" height="480" fill="#26241f"/>
  <rect y="480" width="1200" height="320" fill="#9c7848"/>
  <g opacity=".56">
    <path d="M0 525h1200M0 570h1200M0 620h1200M0 675h1200M0 735h1200" stroke="#4b341c" stroke-width="4"/>
    <path d="M85 480 30 800M250 480 225 800M420 480 405 800M600 480v320M780 480l20 320M950 480l54 320M1120 480l88 320" stroke="#5a3d20" stroke-width="3"/>
  </g>
  <path d="M0 480h1200" stroke="#c9a96e" stroke-opacity=".25" stroke-width="2"/>
  <rect x="120" y="278" width="345" height="94" rx="12" fill="#1a1a18"/>
  <rect x="82" y="350" width="430" height="126" rx="18" fill="#21201d"/>
  <rect x="145" y="476" width="25" height="82" fill="#111110"/>
  <rect x="425" y="476" width="25" height="82" fill="#111110"/>
  <rect x="700" y="250" width="230" height="180" rx="6" fill="#191815"/>
  <rect x="730" y="278" width="170" height="122" rx="4" fill="#c9a96e" opacity=".13"/>
  <circle cx="1002" cy="228" r="46" fill="#f2ede0" opacity=".14"/>
  <path d="M0 800 430 480h340l430 320Z" fill="#f2ede0" opacity=".05"/>
</svg>
