<svg xmlns="http://www.w3.org/2000/svg" viewBox="0 0 1200 800" role="img" aria-label="Living room with herringbone wood flooring">
  <rect width="1200" height="800" fill="#111110"/>
  <linearGradient id="hbWall" x1="0" y1="0" x2="1" y2=".7">
    <stop offset="0" stop-color="#34312a"/>
    <stop offset="1" stop-color="#161512"/>
  </linearGradient>
  <rect width="1200" height="470" fill="url(#hbWall)"/>
  <path d="M0 470h1200v330H0z" fill="#7d6542"/>
  <g transform="translate(0 470)" stroke="#3b2d1c" stroke-width="5" opacity=".62">
    <path d="M0 300 300 0M80 330 410 0M200 330 530 0M320 330 650 0M440 330 770 0M560 330 890 0M680 330 1010 0M800 330 1130 0M920 330 1200 50"/>
    <path d="M1200 300 900 0M1120 330 790 0M1000 330 670 0M880 330 550 0M760 330 430 0M640 330 310 0M520 330 190 0M400 330 70 0M280 330 0 50"/>
  </g>
  <path d="M0 470h1200" stroke="#c9a96e" stroke-opacity=".28" stroke-width="2"/>
  <rect x="130" y="300" width="330" height="120" rx="12" fill="#22201c"/>
  <rect x="110" y="396" width="385" height="86" rx="14" fill="#1a1a18"/>
  <rect x="175" y="482" width="24" height="70" fill="#111110"/>
  <rect x="405" y="482" width="24" height="70" fill="#111110"/>
  <rect x="690" y="290" width="220" height="34" rx="3" fill="#c9a96e" opacity=".45"/>
  <rect x="650" y="324" width="300" height="112" rx="10" fill="#25231f"/>
  <circle cx="980" cy="215" r="50" fill="#c9a96e" opacity=".18"/>
  <path d="M0 800 440 470h320l440 330Z" fill="#f2ede0" opacity=".06"/>
</svg>
