<svg xmlns="http://www.w3.org/2000/svg" viewBox="0 0 800 600" role="img" aria-label="Close-up laminate wood flooring">
  <rect width="800" height="600" fill="#9a7646"/>
  <g stroke="#4f351b" stroke-width="6" opacity=".62">
    <path d="M0 100h800M0 200h800M0 300h800M0 400h800M0 500h800"/>
    <path d="M210 0v100M560 100v100M320 200v100M680 300v100M420 400v100M120 500v100"/>
  </g>
  <g fill="none" stroke="#2b1d0f" stroke-opacity=".22" stroke-width="3">
    <path d="M35 48c92-34 172-28 260 4"/>
    <path d="M410 150c80-26 150-20 260 5"/>
    <path d="M80 255c120-36 215-30 320 6"/>
    <path d="M365 455c100-32 210-24 330 8"/>
  </g>
</svg>
